HIERARCHY
ROOT root
{
	OFFSET 0.000000 0.000000 0.000000
	CHANNELS 6 Xposition Yposition Zposition Zrotation Yrotation Xrotation
	JOINT lhip
	{
		OFFSET 0.058581 -0.082280 -0.017664
		CHANNELS 3 Zrotation Yrotation Xrotation
		JOINT lknee
		{
			OFFSET 0.043451 -0.386469 0.008037
			CHANNELS 3 Zrotation Yrotation Xrotation
			JOINT lankle
			{
				OFFSET -0.014790 -0.426874 -0.037428
				CHANNELS 3 Zrotation Yrotation Xrotation
				JOINT ltoe
				{
					OFFSET 0.041054 -0.060286 0.122042
					CHANNELS 3 Zrotation Yrotation Xrotation
					End Site
					{
						OFFSET 0.000000 0.000000 0.000000
					}
				}
			}
		}
	}
	JOINT rhip
	{
		OFFSET -0.060310 -0.090513 -0.013543
		CHANNELS 3 Zrotation Yrotation Xrotation
		JOINT rknee
		{
			OFFSET -0.043257 -0.383688 -0.004843
			CHANNELS 3 Zrotation Yrotation Xrotation
			JOINT rankle
			{
				OFFSET 0.019056 -0.420046 -0.034562
				CHANNELS 3 Zrotation Yrotation Xrotation
				JOINT rtoe
				{
					OFFSET -0.034840 -0.062106 0.130323
					CHANNELS 3 Zrotation Yrotation Xrotation
					End Site
					{
						OFFSET 0.000000 0.000000 0.000000
					}
				}
			}
		}
	}
	JOINT lowerback
	{
		OFFSET 0.004439 0.124404 -0.038385
		CHANNELS 3 Zrotation Yrotation Xrotation
		JOINT upperback
		{
			OFFSET 0.004488 0.137956 0.026820
			CHANNELS 3 Zrotation Yrotation Xrotation
			JOINT chest
			{
				OFFSET -0.002265 0.056032 0.002855
				CHANNELS 3 Zrotation Yrotation Xrotation
				JOINT lowerneck
				{
					OFFSET -0.013390 0.211636 -0.033468
					CHANNELS 3 Zrotation Yrotation Xrotation
					JOINT upperneck
					{
						OFFSET 0.010113 0.088937 0.050410
						CHANNELS 3 Zrotation Yrotation Xrotation
						End Site
						{
							OFFSET 0.000000 0.000000 0.000000
						}
					}
				}
				JOINT lclavicle
				{
					OFFSET 0.071702 0.114000 -0.018898
					CHANNELS 3 Zrotation Yrotation Xrotation
					JOINT lshoulder
					{
						OFFSET 0.122921 0.045205 -0.019046
						CHANNELS 3 Zrotation Yrotation Xrotation
						JOINT lelbow
						{
							OFFSET 0.255332 -0.015649 -0.022946
							CHANNELS 3 Zrotation Yrotation Xrotation
							JOINT lwrist
							{
								OFFSET 0.265709 0.012698 -0.007375
								CHANNELS 3 Zrotation Yrotation Xrotation
								End Site
								{
									OFFSET 0.000000 0.000000 0.000000
								}
							}
						}
					}
				}
				JOINT rclavicle
				{
					OFFSET -0.082954 0.112472 -0.023707
					CHANNELS 3 Zrotation Yrotation Xrotation
					JOINT rshoulder
					{
						OFFSET -0.113228 0.046853 -0.008472
						CHANNELS 3 Zrotation Yrotation Xrotation
						JOINT relbow
						{
							OFFSET -0.260127 -0.014369 -0.031269
							CHANNELS 3 Zrotation Yrotation Xrotation
							JOINT rwrist
							{
								OFFSET -0.269108 0.006794 -0.006027
								CHANNELS 3 Zrotation Yrotation Xrotation
								End Site
								{
									OFFSET 0.000000 0.000000 0.000000
								}
							}
						}
					}
				}
			}
		}
	}
}
MOTION
Frames: 10
Frame Time: 0.033333
1.809970 0.035643 0.988905 -68.468959 6.349483 87.625205 6.330989 -5.497635 -10.490997 -10.822702 -2.798121 57.411021 -1.822719 5.330228 -12.108868 0.000000 -0.000000 0.000000 7.785321 4.882481 -3.411872 8.274662 5.170184 3.828714 -6.237036 -9.665919 -4.934850 0.000000 -0.000000 0.000000 13.089642 -2.629081 3.384798 9.116220 -4.541361 5.726233 1.385451 -1.145998 -3.842516 2.552281 -2.398822 3.490598 0.290997 2.606595 21.286705 -38.826437 -11.511012 15.156577 -53.034124 -4.707155 13.916488 7.039639 -33.621961 14.193516 -2.645470 -20.311335 -0.356186 32.902566 12.299335 15.145140 29.212989 5.018476 -0.516924 -6.782127 21.532224 0.781452 0.530418 16.978819 -14.360810 
1.792972 0.029400 0.989734 -69.519016 6.085613 87.084723 6.476544 -6.072078 -13.634165 -9.311905 -1.357876 57.297898 0.584456 7.477020 -17.094103 0.000000 -0.000000 0.000000 7.947536 5.055652 -1.928534 8.110201 6.609407 4.728747 -5.817649 -10.481810 -6.487064 0.000000 -0.000000 0.000000 12.230140 -2.298775 3.976204 9.383856 -5.405257 5.771612 1.763224 -1.229392 -3.492339 3.151725 -2.325249 4.417240 0.878703 2.476137 21.362045 -38.172405 -12.545664 15.393222 -53.271868 -5.990044 13.516054 8.378250 -31.875937 12.472114 0.425851 -19.618621 -1.747140 32.970372 12.637319 15.474896 29.823470 5.590763 -0.611716 -9.660468 18.976366 -2.173635 -4.730702 15.843168 -12.377371 
1.775796 0.023206 0.990717 -70.578944 5.695301 87.038644 6.574824 -6.746714 -16.822868 -7.564445 -0.242024 55.111246 2.697689 9.919320 -21.960597 0.000000 -0.000000 0.000000 7.985749 5.121977 -1.235887 7.797174 7.678116 6.072387 -5.239623 -10.833935 -8.070709 0.000000 -0.000000 0.000000 11.331692 -1.699702 3.949097 9.525020 -6.139575 5.482104 1.861638 -1.280459 -2.829855 3.629747 -2.006882 5.582939 1.638753 1.759057 21.003347 -37.360612 -13.364062 15.504868 -53.605732 -7.340226 13.007018 9.356364 -29.966703 10.469599 3.645942 -18.275079 -3.420072 32.811942 12.255789 15.634820 31.415034 6.380604 -0.984676 -12.321450 17.325976 -5.035148 -10.657120 14.339820 -11.712995 
1.754115 0.016009 0.990886 -72.276240 4.982215 87.377578 6.685971 -7.326762 -20.424286 -4.989970 1.261699 49.654892 4.308689 12.107398 -25.139404 0.000000 -0.000000 0.000000 7.784136 5.145186 -1.543326 7.370353 8.582088 9.172368 -4.595016 -10.289270 -10.657935 0.000000 -0.000000 0.000000 10.089776 -0.716777 3.629842 9.347348 -6.643370 5.341702 1.665464 -1.125863 -2.334170 4.397803 -1.485046 6.787723 2.593581 0.494645 20.389171 -36.469051 -14.288163 15.300861 -54.030652 -8.551917 12.487708 10.670207 -27.929081 7.207989 7.417751 -16.271832 -4.556446 32.466030 11.572808 15.272594 34.867224 6.603356 -1.680564 -15.419864 17.186115 -9.690854 -15.684071 11.953657 -13.506542 
1.741102 0.011491 0.990345 -73.373557 4.475772 87.550026 6.711607 -7.531253 -22.149492 -3.564342 2.186229 45.401361 4.763712 13.041534 -25.721049 0.000000 -0.000000 0.000000 7.592069 5.258899 -1.854700 7.128174 9.009032 11.365493 -4.391244 -9.950831 -12.326049 0.000000 -0.000000 0.000000 9.283396 -0.194292 3.567903 9.078001 -6.731683 5.439408 1.487037 -1.026012 -2.150981 4.848755 -1.064130 6.934406 3.023449 -0.193880 20.083172 -35.982296 -14.629691 15.004158 -54.143102 -9.071621 12.231269 11.601775 -27.428268 5.371767 8.813778 -15.543814 -5.030033 32.261673 11.251440 14.716153 37.092803 6.568791 -2.004743 -16.806246 17.263424 -12.508122 -15.985504 10.926887 -16.238002 
1.723590 0.004917 0.988915 -74.795417 3.806775 87.567591 6.657553 -7.689655 -23.750061 -2.142874 2.986429 38.934837 5.262321 13.886914 -25.520472 0.000000 -0.000000 0.000000 7.310398 5.461482 -1.967279 6.798736 9.418421 14.247846 -4.183740 -9.509404 -14.607957 0.000000 -0.000000 0.000000 8.283523 0.301644 3.695256 8.513017 -6.697674 5.812296 1.248764 -0.744842 -1.887406 5.237617 -0.447341 6.498116 3.687095 -1.062834 19.685069 -35.487677 -14.765919 14.202172 -53.888116 -9.493917 11.899330 12.560361 -27.717882 3.239719 9.777744 -15.095797 -5.053208 32.115774 10.680326 14.172877 39.459511 6.443462 -2.616122 -17.535099 17.843677 -15.561345 -14.130975 10.480897 -20.207966 
1.705655 -0.002326 0.986746 -76.248008 3.291977 87.438595 6.729625 -7.550806 -24.773111 -1.662667 2.596780 32.212674 5.612298 13.488833 -24.334558 0.000000 -0.000000 0.000000 7.061845 5.634813 -1.577521 6.750058 10.422169 16.696671 -4.488645 -9.701108 -16.583971 0.000000 -0.000000 0.000000 7.831049 0.455433 3.616857 7.524241 -6.549751 7.158535 0.993243 -0.764580 -2.161594 4.475531 -0.707393 6.241235 4.601936 -0.339662 19.147028 -35.577863 -14.265447 13.039081 -53.138350 -9.253338 11.212045 13.582276 -29.338480 1.043314 9.382788 -15.131525 -4.401713 31.690197 11.037023 12.678826 42.210469 5.609621 -0.958879 -17.912911 17.410134 -18.719833 -10.676303 11.709771 -21.158225 
1.687727 -0.010889 0.983934 -77.654601 2.988897 87.312906 6.817587 -7.185061 -25.453806 -1.520842 0.663624 25.534905 5.557038 12.170637 -22.597884 0.000000 -0.000000 0.000000 6.879991 5.483475 -1.214176 6.723084 11.283629 19.059761 -4.570808 -9.405368 -18.519794 0.000000 -0.000000 0.000000 7.523785 0.491052 3.906097 6.731299 -6.210312 7.686832 0.628366 -0.463061 -2.060013 4.356943 -0.500674 5.802922 5.239553 -0.469898 18.488855 -36.312707 -13.484763 12.028923 -52.165431 -9.140900 10.893397 14.895369 -31.262568 -1.014239 8.957556 -15.108711 -4.350918 32.001061 10.990019 12.664284 43.378696 4.440421 -0.093776 -17.073475 18.757996 -17.954392 -7.946065 12.621708 -21.043858 
1.669445 -0.019869 0.980254 -78.975268 3.036229 87.401685 7.251108 -6.751020 -25.986667 -1.223530 -2.099347 19.122411 5.666150 9.940494 -20.737955 0.000000 -0.000000 0.000000 6.833217 5.048687 -0.820480 6.710741 12.079095 21.003431 -4.796322 -8.638642 -20.196934 0.000000 -0.000000 0.000000 7.364267 0.490798 4.076501 6.215077 -5.865251 7.884337 0.192689 0.230482 -1.709705 4.708628 -0.101233 4.844787 5.868806 -1.319365 18.037468 -37.201717 -12.829378 11.442147 -52.038699 -9.388367 10.719674 16.959484 -32.969510 -3.103101 8.365681 -14.960697 -5.080906 32.565007 10.559356 15.341402 44.291910 4.236243 -0.180095 -16.918231 21.273798 -15.287454 -5.697040 13.131556 -19.781814 
1.645216 -0.032330 0.976229 -80.640329 3.400780 87.631619 8.118826 -6.375246 -26.237630 -0.740192 -6.106288 12.295676 5.800318 7.485515 -18.973305 0.000000 -0.000000 0.000000 6.865755 4.707411 -0.028628 6.954847 13.349140 22.717098 -5.085105 -8.229539 -21.976600 0.000000 -0.000000 0.000000 7.253463 0.425320 3.844821 5.677444 -5.484929 8.363061 -0.058559 0.313104 -1.839475 4.551358 -0.168440 5.358431 6.194337 -0.856161 17.156197 -37.908033 -11.326824 10.761047 -52.940740 -9.300503 10.826942 19.574094 -34.688860 -5.208556 9.548111 -14.061988 -8.146762 32.591345 10.943279 15.975668 46.174522 2.903108 2.990773 -16.719931 22.222569 -11.279940 -4.809286 13.554605 -17.162783 
